PathFileType	4	(X/Y/Z)	Patient4_TMGait_0pt3_02_right_04.trc.trc
DataRate	CameraRate	NumFrames	NumMarkers	Units	OrigDataRate	OrigDataStartFrame	OrigNumFrames
47.781569965870	47.781569965870	4	33	mm	47.781569965870	53	       141
Frame#	Time	Sacral			L.Shoulder			Chest			R.Shoulder			Neck			R.ASIS			L.ASIS			R.Thigh.Superior			R.Thigh.Lateral			R.Thigh.Inferior			R.Patella			L.Thigh.Superior			L.Thigh.Lateral			L.Thigh.Inferior			L.Patella			L.Shank.Superior			L.Shank.Lateral			L.Shank.Inferior			R.Shank.Superior			R.Shank.Lateral			R.Shank.Inferior			R.Heel			R.Midfoot.Superior			R.Midfoot.Lateral			R.Toe			L.Heel			L.Midfoot.Lateral			L.Midfoot.Superior			L.Toe			L.Elbow			L.Wrist			R.Elbow			R.Wrist			
		X1	Y1	Z1	X2	Y2	Z2	X3	Y3	Z3	X4	Y4	Z4	X5	Y5	Z5	X6	Y6	Z6	X7	Y7	Z7	X8	Y8	Z8	X9	Y9	Z9	X10	Y10	Z10	X11	Y11	Z11	X12	Y12	Z12	X13	Y13	Z13	X14	Y14	Z14	X15	Y15	Z15	X16	Y16	Z16	X17	Y17	Z17	X18	Y18	Z18	X19	Y19	Z19	X20	Y20	Z20	X21	Y21	Z21	X22	Y22	Z22	X23	Y23	Z23	X24	Y24	Z24	X25	Y25	Z25	X26	Y26	Z26	X27	Y27	Z27	X28	Y28	Z28	X29	Y29	Z29	X30	Y30	Z30	X31	Y31	Z31	X32	Y32	Z32	X33	Y33	Z33	

53	7.288285714286	708.933449346051	995.010689763798	580.677320963973	909.816421743609	1410.697539044267	387.785554086657	1000.947356889623	1345.021406857753	557.024502576197	912.075645061905	1427.044102708633	724.039823838969	889.058132167092	1480.474294807867	542.015759235153	939.665702236609	928.024157560453	699.298901783102	925.288711348167	945.758419715441	425.359000075003	986.724185086670	728.489240842800	655.584911490861	905.221053077504	611.435260241370	701.543252513508	984.853942492106	566.536873332311	618.776905981945	985.097829459991	470.075564713373	618.105445498074	990.755302985220	744.740719369481	454.866421523729	929.977429816479	624.866157388929	377.498621066153	1020.802890660138	548.603114890729	444.741079398946	1019.019993669994	458.254043393042	433.699649271407	943.040252842072	403.666111304532	418.306581644115	797.349329849262	385.640947509901	365.142776415640	765.690000104021	254.669285900190	407.929184609149	937.172800925485	385.358608045132	616.944182154996	847.262207930136	292.125583824641	670.649055848521	869.761154684342	196.528502696692	601.643265471589	709.948737466391	46.684959714522	561.815705514504	881.612477926898	96.783129638382	604.969059800241	790.181218298673	38.454843763079	639.446504628993	998.464902126348	39.527037352011	639.112019204422	568.368230678611	221.790507839406	440.412854316929	616.054001916871	169.118315016270	358.065072284928	721.214518405923	154.726367905270	378.465953562142	776.022236469978	32.952477325986	344.772435805178	905.592214521837	1049.129881970191	296.313859488117	985.761104961685	802.020545217573	303.071571744109	861.887232938432	1082.764859728063	852.404345990740	948.664644553604	838.197859729013	881.765484264564	
54	7.309214285714	707.041708404940	992.651775059862	583.738076540959	905.347893625276	1407.583217556040	387.311228129544	998.987142108939	1342.671383400710	555.454284087506	912.736241011498	1425.188328357069	723.663906616005	887.229477363863	1478.182829309109	541.597569741493	939.079759062610	926.086652278207	699.967796185793	921.688781950111	943.744965740706	426.173537815826	986.495176828346	726.710203310263	655.635203216467	905.791216602272	609.158608756745	701.521640802094	985.143802686429	564.794638105316	618.070126199204	985.450047121555	467.723302972965	617.016627745252	991.897846251891	746.537978429661	456.818397716395	934.984350991470	625.210524682417	379.186887668006	1027.533114809376	551.336267722193	447.076685148795	1027.948030292620	460.528554593323	435.675011434723	952.477891265257	404.643449397955	419.839478925470	806.385548894687	385.350095337822	367.560239461474	776.786747456626	253.680994256632	409.515360887603	936.122994208856	383.198604620166	616.093763565014	845.230038055522	291.118754659492	670.408491721412	865.582422601835	195.369303686179	601.177243328608	703.616860576385	46.809970253361	561.916087968096	875.199244664866	96.465320190390	604.583047677145	783.913335509784	38.464107075736	639.543652365161	992.187614661915	39.440668734634	639.146471347041	579.967478316611	216.220061149032	443.094700257278	628.291075670634	167.106599906141	359.153456404665	733.735336520781	154.889584233344	379.009402558400	791.038382184014	34.202258696209	341.505301646909	888.551455201557	1045.742869998217	298.279939965970	949.501414416512	792.619174413507	306.190838515784	876.855645671428	1079.288798035316	854.216495574503	983.248088921212	842.487473379220	879.272087186598	
55	7.330142857143	705.318258907424	990.764873352393	586.593146853651	900.718304370203	1405.083616110499	386.859695022384	997.019919605482	1340.803941733848	553.692457911784	913.579975679550	1423.719960639821	723.180132421451	885.396850792598	1476.343368898594	541.180871091284	938.556528139337	924.427786928658	700.200197464267	918.014878489573	942.168105755173	426.630389090753	985.810620327521	725.022824647265	655.263557909752	905.749732739004	607.201599693652	701.291058727129	984.575905905288	563.188347139810	617.060319079666	984.807568868310	465.678960478288	615.674830090053	992.415885623240	748.632474845339	458.241344109285	938.941553075415	626.076777767083	380.394277889921	1033.006658316568	554.443112678312	448.788512605296	1035.718863691577	463.479966313909	437.071091383554	961.398883699561	406.053453199016	420.811058164645	815.382132516496	383.738140617905	369.377458012324	789.475706828037	251.197211762230	410.566541319319	934.301387172536	381.324723852351	615.101508026681	842.673958766177	290.242834178174	670.096215802894	861.108055348708	194.367080500143	600.687406736821	697.270757077567	46.927605459325	562.052288136658	868.750463784524	96.131218949075	604.171167048436	777.636474023231	38.471701159338	639.664992996055	985.905289860526	39.370215093290	639.169768124465	593.953692079190	206.552896836372	445.226317390438	643.423824890238	161.768425854466	359.739963134824	749.090160906793	153.264824726373	379.067625135234	810.499953656192	35.304529392630	337.865595891346	870.584764936476	1043.653702636515	299.804234306163	914.062586019342	786.614558641107	309.291822147865	892.455768586942	1076.890101452281	855.645819162813	1018.824655639309	849.981591182239	875.530498272534	
56	7.351071428571	703.779557936404	989.511992494678	589.267331228122	895.947872227850	1403.358559052055	386.446024483321	995.083596369646	1339.555730005024	551.725081055926	914.676170946291	1422.776780045797	722.568953603606	883.586527021107	1475.088500339945	540.770375689319	938.118082786769	923.156217057711	699.968443104932	914.306032990822	941.198434671670	426.697690776999	984.608885502173	723.514597886514	654.476250078317	904.984667718070	605.684034678997	700.899898663601	983.007639865773	561.796207226630	615.803906226411	983.005880579621	464.036227399565	614.166928729434	992.290130165705	751.075862308574	459.135129358165	941.822011938913	627.508571914334	381.088663695869	1037.155209374084	557.915181576082	449.855585616043	1042.241848359504	467.135390575557	437.853628405927	969.757049851552	407.955067380620	421.184210305405	824.466872021030	380.881987370488	370.431778432127	803.839683996568	247.416477113474	410.968543701034	931.569431379088	379.839465598308	614.038889052046	839.479745110181	289.561603532677	669.757691085761	856.283506251563	193.584319487924	600.213480427741	690.917572165180	47.055354204219	562.231142214649	862.292677066999	95.815816409372	603.785536902787	771.351951725103	38.488651305972	639.811090879097	979.617007464291	39.310835607505	639.182190879758	610.593459754515	193.312180281115	446.547059792810	661.634094537076	153.394411945077	359.696715328093	767.342919303499	149.976689348154	378.590486643707	834.222964127792	36.214668340420	334.100494647548	852.011593007501	1043.057989190082	300.956556639067	879.964671907161	783.808634849079	312.324289525314	908.612159101018	1075.764242631190	856.633362677164	1054.792412451227	860.962368715586	870.535388411323	
